<?xml version="1.0" encoding="utf-8"?>
<!-- Generator: Adobe Illustrator 16.0.0, SVG Export Plug-In . SVG Version: 6.00 Build 0)  -->
<!DOCTYPE svg PUBLIC "-//W3C//DTD SVG 1.1//EN" "http://www.w3.org/Graphics/SVG/1.1/DTD/svg11.dtd">
<svg version="1.1" id="Layer_1" xmlns="http://www.w3.org/2000/svg" xmlns:xlink="http://www.w3.org/1999/xlink" x="0px" y="0px"
	 width="193px" height="66px" viewBox="0 0 193 66" enable-background="new 0 0 193 66" xml:space="preserve">
<g>
	<circle fill-rule="evenodd" clip-rule="evenodd" fill="#542989" cx="34.572" cy="32.356" r="31.072"/>
	<circle fill-rule="evenodd" clip-rule="evenodd" fill="#FFD204" cx="34.126" cy="31.8" r="11.583"/>
	<rect x="67.982" y="4.18" fill-rule="evenodd" clip-rule="evenodd" fill="#ED174F" width="22.719" height="57.912"/>
	<polygon fill-rule="evenodd" clip-rule="evenodd" fill="#00AA4C" points="131.463,4.848 107.853,4.848 80.456,32.69 107.63,61.646 
		131.686,61.646 104.734,32.69 	"/>
	<g>
		<path fill="#219950" d="M130.033,31.479c-0.085-1.611-0.188-3.55-0.171-4.99h-0.052c-0.395,1.354-0.875,2.795-1.457,4.391
			l-2.041,5.607h-1.132l-1.869-5.505c-0.549-1.63-1.013-3.121-1.338-4.493h-0.034c-0.035,1.44-0.12,3.379-0.223,5.11l-0.309,4.956
			h-1.424l0.807-11.559h1.902l1.973,5.591c0.48,1.424,0.875,2.692,1.166,3.893h0.052c0.292-1.165,0.703-2.435,1.218-3.893
			l2.058-5.591h1.903l0.721,11.559h-1.457L130.033,31.479z"/>
		<path fill="#219950" d="M135.779,32.92l-1.2,3.636h-1.544l3.928-11.559h1.801l3.945,11.559h-1.596l-1.234-3.636H135.779z
			 M139.57,31.754l-1.133-3.327c-0.257-0.754-0.428-1.44-0.6-2.109h-0.035c-0.171,0.687-0.359,1.39-0.582,2.093l-1.133,3.344H139.57
			z"/>
		<path fill="#219950" d="M144.406,25.151c0.755-0.154,1.836-0.24,2.864-0.24c1.595,0,2.624,0.292,3.345,0.943
			c0.583,0.515,0.908,1.304,0.908,2.195c0,1.526-0.96,2.538-2.178,2.95v0.051c0.893,0.309,1.424,1.132,1.698,2.332
			c0.377,1.612,0.651,2.728,0.892,3.173h-1.543c-0.189-0.325-0.446-1.32-0.772-2.761c-0.343-1.596-0.96-2.195-2.315-2.247h-1.406
			v5.008h-1.492V25.151z M145.898,30.416h1.526c1.595,0,2.606-0.874,2.606-2.195c0-1.491-1.08-2.144-2.658-2.16
			c-0.72,0-1.234,0.068-1.475,0.137V30.416z"/>
		<path fill="#219950" d="M153.634,24.997h1.492v5.573h0.052c0.309-0.445,0.617-0.857,0.908-1.234l3.533-4.339h1.852l-4.184,4.905
			l4.51,6.653h-1.766l-3.809-5.676l-1.097,1.269v4.407h-1.492V24.997z"/>
		<path fill="#219950" d="M168.914,31.137h-4.492v4.167h5.008v1.252h-6.5V24.997h6.242v1.252h-4.75v3.653h4.492V31.137z"/>
		<path fill="#219950" d="M173.837,26.266h-3.517v-1.269h8.559v1.269h-3.533v10.29h-1.509V26.266z"/>
	</g>
</g>
</svg>
